<svg width="1604" height="128" viewBox="0 0 1604 128" fill="none" xmlns="http://www.w3.org/2000/svg">
<g style="mix-blend-mode:luminosity">
<path d="M14.635 46H0V81L14.635 46Z" fill="#FA0C00"/>
<path d="M24.9316 46H39.5476V81L24.9316 46Z" fill="#FA0C00"/>
<path d="M19.7842 58.8999L29.0991 81.0001H22.9876L20.2037 73.9639H13.3867L19.7842 58.8999Z" fill="#FA0C00"/>
<path d="M63.4236 68.2578L65.1493 73.206C65.2065 73.33 65.2923 73.3872 65.4448 73.3872H68.7627C68.9439 73.3872 68.9725 73.3014 68.9439 73.1202L62.0888 54.0804C62.0602 53.9279 62.0316 53.8993 61.879 53.8993H57.7603C57.6459 53.8993 57.5791 53.9851 57.5791 54.109C57.5219 55.1101 57.4361 55.4152 57.3122 55.7108L51.2007 73.0916C51.1721 73.3014 51.2389 73.3872 51.4105 73.3872H54.3756C54.5568 73.3872 54.6426 73.33 54.7093 73.1488L56.3397 68.2578H63.4236ZM57.2836 65.0257C58.1798 62.318 59.362 58.8475 59.8387 56.8644H59.8673C60.4584 58.9429 61.8504 63.0616 62.4797 65.0257H57.2836Z" fill="#FA0C00"/>
<path d="M77.7572 73.6828C79.5401 73.6828 81.4374 73.3587 83.3633 72.5292C83.5158 72.472 83.5444 72.4052 83.5444 72.2622C83.4872 71.7283 83.4205 70.956 83.4205 70.3649V52.4407C83.4205 52.3262 83.4205 52.269 83.2775 52.269H80.0454C79.9215 52.269 79.8643 52.3262 79.8643 52.4788V58.5521C79.3589 58.4949 79.0062 58.4663 78.5867 58.4663C73.3715 58.4663 70.168 61.9081 70.168 66.208C70.168 71.1944 73.4573 73.6828 77.7572 73.6828ZM79.8642 70.3649C79.3303 70.5365 78.7392 70.6033 78.1386 70.6033C75.7741 70.6033 73.8386 69.2685 73.8386 66.0269C73.8386 63.1571 75.8313 61.46 78.4723 61.46C79.0062 61.46 79.4733 61.5172 79.8642 61.6698V70.3649Z" fill="#FA0C00"/>
<path d="M93.8553 58.4663C89.4028 58.4663 86.6475 61.8795 86.6475 66.0937C86.6475 69.8597 88.8403 73.6829 93.7886 73.6829C97.9741 73.6829 100.911 70.6033 100.911 65.9983C100.911 61.9368 98.4222 58.4663 93.8553 58.4663ZM93.6742 61.46C96.1912 61.46 97.259 63.6243 97.259 66.0937C97.259 69.1446 95.6859 70.6605 93.8553 70.6605C91.5957 70.6605 90.2609 68.7632 90.2609 66.0269C90.2609 63.2143 91.6815 61.46 93.6742 61.46Z" fill="#FA0C00"/>
<path d="M104.252 52.2689C104.128 52.2689 104.042 52.3261 104.042 52.4787V72.7674C104.042 72.8532 104.128 73.0058 104.252 73.0344C105.672 73.4729 107.16 73.6827 108.695 73.6827C113.09 73.6827 117.361 70.9559 117.361 65.4642C117.361 61.4885 114.634 58.4661 110.363 58.4661C109.381 58.4661 108.466 58.6187 107.665 58.8856L107.627 52.5073C107.627 52.2975 107.57 52.2689 107.36 52.2689H104.252ZM113.71 65.8265C113.71 69.1158 111.46 70.6604 109.028 70.6604C108.523 70.6604 108.075 70.6318 107.665 70.5078V61.8508C108.132 61.6696 108.695 61.5171 109.734 61.5171C112.079 61.5171 113.71 63.0044 113.71 65.8265Z" fill="#FA0C00"/>
<path d="M129.423 66.8944C130.872 66.8944 132.064 66.8658 132.474 66.7705C132.627 66.7419 132.684 66.6847 132.713 66.5607C132.798 66.2365 132.836 65.5596 132.836 64.7301C132.836 61.908 131.139 58.4662 126.754 58.4662C122.273 58.4662 119.784 62.1178 119.784 66.2365C119.784 69.8881 121.71 73.6828 127.106 73.6828C129.128 73.6828 130.434 73.3586 131.559 72.8247C131.673 72.7675 131.73 72.6721 131.73 72.5005V70.0312C131.73 69.8881 131.645 69.8595 131.559 69.9167C130.434 70.3935 129.213 70.6318 127.879 70.6318C124.856 70.6318 123.483 68.9633 123.398 66.8944H129.423ZM123.398 64.3392C123.636 62.8901 124.551 61.3169 126.601 61.3169C128.861 61.3169 129.452 63.2142 129.452 64.0723C129.452 64.1009 129.452 64.2248 129.452 64.3106C129.328 64.3392 128.947 64.3392 127.821 64.3392H123.398Z" fill="#FA0C00"/>
</g>
<g style="mix-blend-mode:luminosity" clip-path="url(#clip0_21428_8643)">
<path d="M212.29 71.0833C209.107 71.0833 207 68.6718 206.412 67.7377C207.166 61.8285 209.373 59.9601 212.29 59.9601C215.174 59.9601 217.415 62.2195 217.415 65.5216C217.415 68.8239 215.174 71.0833 212.29 71.0833ZM212.29 56.332C207.099 56.332 204.193 59.6451 203.361 63.0559C202.419 61.3179 201.72 58.9934 201.176 56.8317H194V65.576C194 68.7479 192.525 71.0942 189.641 71.0942C186.757 71.0942 185.104 68.7479 185.104 65.576L185.137 56.8317H181V65.576C181 68.1287 181.843 70.4425 183.385 72.0935C184.971 73.7989 187.134 74.6896 189.641 74.6896C194.632 74.6896 198.115 70.9421 198.115 65.576V59.6994C198.636 61.6329 199.879 65.3479 202.252 68.6067L200.034 80.9791H204.238L205.702 72.213C206.179 72.604 206.689 72.9516 207.232 73.2667C208.641 74.1357 210.249 74.6245 211.913 74.6788C211.913 74.6788 212.168 74.6896 212.302 74.6896C217.448 74.6896 221.541 70.7901 221.541 65.5216C221.541 60.2534 217.437 56.332 212.29 56.332Z" fill="#14A800"/>
<path d="M271.731 58.7014V56.8331H267.672V74.137H271.787V67.3589C271.787 63.1877 272.175 60.1896 277.888 60.5807V56.6267C275.225 56.4312 273.151 56.9743 271.731 58.7014Z" fill="#14A800"/>
<path d="M243.16 56.834L240.176 68.9348L236.993 56.834H231.758L228.563 68.9348L225.591 56.834H221.42L225.99 74.1489H230.937L234.375 61.8525L237.781 74.1489H242.728L247.564 56.834H243.16Z" fill="#14A800"/>
<path d="M256.626 71.0942C253.698 71.0942 251.502 68.8348 251.502 65.5216C251.502 62.2086 253.709 59.9601 256.626 59.9601C259.51 59.9601 261.751 62.2195 261.751 65.5216C261.751 68.8238 259.51 71.0942 256.626 71.0942ZM256.626 56.332C251.446 56.332 247.387 60.2643 247.387 65.5216C247.387 70.7791 251.446 74.6788 256.626 74.6788C261.773 74.6788 265.866 70.7791 265.866 65.5216C265.866 60.2643 261.784 56.332 256.626 56.332Z" fill="#14A800"/>
<path d="M283.79 65.6312H284.744L290.49 74.1473H295.137L288.527 64.7078C291.732 63.4804 293.884 60.2759 293.884 56.8325H289.78C289.78 60.5692 286.774 61.9813 283.79 61.9813V50H279.664V74.1473H283.779L283.79 65.6312Z" fill="#14A800"/>
</g>
<g style="mix-blend-mode:luminosity">
<path fill-rule="evenodd" clip-rule="evenodd" d="M422.707 60.5972C423.081 61.2429 423.204 61.9774 423.244 62.8032L423.297 63.9039V71.6007L423.352 72.7025C423.46 74.502 424.787 75.8325 426.601 75.9457L427.697 76V63.9039L427.751 62.8032C427.796 61.9867 427.917 61.2382 428.297 60.588C428.685 59.921 429.24 59.3677 429.909 58.9835C430.578 58.5993 431.336 58.3978 432.107 58.3992C432.878 58.4006 433.635 58.6049 434.303 58.9915C434.97 59.3781 435.524 59.9335 435.909 60.6018C436.283 61.2475 436.4 61.9959 436.445 62.8032L436.499 63.9005V71.6007L436.553 72.7025C436.666 74.5112 437.983 75.8418 439.802 75.9457L440.898 76V62.8032C440.898 60.4697 439.971 58.2317 438.322 56.5813C436.672 54.9309 434.434 54.0032 432.101 54.0023C430.852 54.001 429.617 54.2662 428.479 54.7803C427.34 55.2944 426.325 56.0454 425.5 56.9833C424.675 56.0458 423.659 55.2949 422.521 54.7807C421.383 54.2665 420.148 54.0007 418.899 54.0012C417.072 54.0012 415.377 54.5555 413.972 55.513C413.115 54.5567 411.198 54.0012 410.097 54.0012V76L411.198 75.9457C413.039 75.8244 414.369 74.5297 414.441 72.7025L414.5 71.6007V63.9039L414.554 62.8032C414.6 61.9728 414.716 61.2429 415.091 60.5926C415.479 59.9261 416.034 59.3728 416.703 58.9882C417.371 58.6035 418.128 58.4009 418.899 58.4005C419.671 58.4006 420.429 58.6037 421.097 58.9893C421.766 59.3748 422.321 59.9294 422.707 60.5972ZM347.399 75.9469L348.5 76H364.999L364.945 74.9028C364.796 73.0941 363.515 71.7728 361.7 71.655L360.6 71.6007H350.701L363.898 58.3993L363.844 57.3032C363.758 55.4761 362.423 54.1559 360.6 54.0554L359.499 54.0058L343 54.0012L343.054 55.1019C343.199 56.8932 344.498 58.2422 346.297 58.3462L347.399 58.4005H357.297L344.101 71.6018L344.155 72.7025C344.264 74.5159 345.572 75.8291 347.399 75.9457V75.9469ZM405.779 57.2212C406.8 58.2426 407.611 59.4552 408.164 60.7898C408.717 62.1244 409.001 63.5548 409.001 64.9994C409.001 66.444 408.717 67.8744 408.164 69.209C407.611 70.5436 406.8 71.7562 405.779 72.7776C403.715 74.8399 400.917 75.9983 397.999 75.9983C395.081 75.9983 392.283 74.8399 390.219 72.7776C385.924 68.4823 385.924 61.5166 390.219 57.2212C391.24 56.2002 392.451 55.3902 393.785 54.8375C395.119 54.2848 396.548 54.0002 397.992 54C399.438 53.999 400.87 54.2831 402.206 54.836C403.542 55.3889 404.756 56.1999 405.779 57.2224V57.2212ZM402.666 60.3362C403.903 61.5744 404.598 63.2531 404.598 65.0035C404.598 66.7538 403.903 68.4326 402.666 69.6707C401.428 70.908 399.749 71.6029 397.999 71.6029C396.248 71.6029 394.57 70.908 393.332 69.6707C392.094 68.4326 391.399 66.7538 391.399 65.0035C391.399 63.2531 392.094 61.5744 393.332 60.3362C394.57 59.099 396.248 58.404 397.999 58.404C399.749 58.404 401.428 59.099 402.666 60.3362ZM374.906 54C376.35 54.0004 377.78 54.2851 379.113 54.8381C380.447 55.391 381.659 56.2012 382.679 57.2224C386.976 61.5166 386.976 68.4834 382.679 72.7776C380.615 74.8399 377.817 75.9983 374.899 75.9983C371.982 75.9983 369.183 74.8399 367.119 72.7776C362.824 68.4823 362.824 61.5166 367.119 57.2212C368.14 56.2002 369.352 55.3902 370.685 54.8375C372.019 54.2848 373.449 54.0002 374.892 54H374.906ZM379.567 60.3339C380.804 61.5721 381.499 63.2511 381.499 65.0017C381.499 66.7524 380.804 68.4314 379.567 69.6696C378.328 70.9068 376.65 71.6018 374.899 71.6018C373.149 71.6018 371.47 70.9068 370.232 69.6696C368.995 68.4314 368.3 66.7527 368.3 65.0023C368.3 63.252 368.995 61.5732 370.232 60.335C371.47 59.0978 373.149 58.4028 374.899 58.4028C376.65 58.4028 378.328 59.0978 379.567 60.335V60.3339Z" fill="#2D8CFF"/>
</g>
<g style="mix-blend-mode:luminosity">
<path d="M542.47 70.8425V57.5279C542.47 57.3669 542.538 57.229 542.653 57.114C542.791 56.999 542.952 56.93 543.136 56.953H546.885C547.989 56.907 549.092 57.2749 549.943 57.9878C550.702 58.6777 551.093 59.7585 551.093 61.2302V61.4142C551.093 62.8859 550.702 63.9897 549.92 64.6796C549.046 65.3925 547.943 65.7834 546.816 65.7144H544.148V70.8425C544.148 71.0265 544.056 71.1874 543.895 71.2794C543.527 71.4864 543.09 71.4864 542.722 71.2794C542.561 71.1874 542.47 71.0265 542.47 70.8425ZM544.125 64.3347H546.816C547.529 64.3807 548.241 64.1277 548.747 63.6218C549.253 63.0469 549.506 62.288 549.437 61.5062V61.2762C549.506 60.5174 549.253 59.7585 548.747 59.1606C548.218 58.6777 547.529 58.4247 546.816 58.4707H544.148L544.125 64.3347Z" fill="#FF6C37"/>
<path d="M556.888 67.2322V61.2763C556.888 59.7815 557.279 58.7007 558.038 58.0109C559.877 56.6311 562.407 56.6311 564.247 58.0109C565.028 58.7007 565.419 59.8045 565.419 61.2763V67.2322C565.419 68.7269 565.028 69.8077 564.247 70.4976C562.407 71.9004 559.877 71.9004 558.038 70.4976C557.279 69.8077 556.888 68.7269 556.888 67.2322ZM558.567 67.2322C558.567 69.0949 559.417 70.0377 561.165 70.0377C561.878 70.0837 562.568 69.8307 563.097 69.3478C563.603 68.7729 563.833 68.0141 563.787 67.2322V61.2533C563.856 60.4944 563.603 59.7356 563.097 59.1377C562.568 58.6547 561.878 58.4018 561.165 58.4478C559.44 58.4478 558.59 59.3676 558.59 61.2533L558.567 67.2322Z" fill="#FF6C37"/>
<path d="M571.306 69.3938C571.306 69.1638 571.398 68.9568 571.536 68.7729C571.651 68.6119 571.812 68.4969 572.019 68.4739C572.203 68.4969 572.364 68.5889 572.479 68.7269C572.663 68.8879 572.847 69.0718 573.054 69.2788C573.33 69.5317 573.652 69.7157 573.997 69.8307C574.457 70.0147 574.963 70.0836 575.446 70.0836C576.181 70.1296 576.894 69.8997 577.469 69.4628C577.975 69.0028 578.251 68.313 578.205 67.6231C578.228 66.9562 577.998 66.3353 577.538 65.8524C577.078 65.3925 576.526 65.0475 575.906 64.8176C575.262 64.5876 574.641 64.3347 573.974 64.0587C573.33 63.7828 572.778 63.3688 572.341 62.8169C571.881 62.1961 571.628 61.4372 571.674 60.6553C571.651 60.0345 571.789 59.4136 572.065 58.8387C572.295 58.3558 572.663 57.9648 573.123 57.6889C573.56 57.4359 574.02 57.252 574.503 57.114C575.009 56.999 575.515 56.93 576.021 56.93C576.825 56.93 577.607 57.045 578.366 57.2749C579.102 57.5279 579.493 57.8498 579.493 58.2408C579.493 58.4477 579.424 58.6547 579.286 58.8387C579.194 59.0226 578.987 59.1606 578.78 59.1606C578.481 59.0686 578.182 58.9536 577.883 58.8157C577.308 58.5627 576.687 58.4247 576.044 58.4477C575.377 58.4247 574.687 58.5857 574.112 58.9306C573.606 59.2756 573.33 59.8735 573.376 60.4944C573.353 61.0693 573.583 61.6212 574.02 61.9891C574.503 62.38 575.055 62.702 575.653 62.8859C576.296 63.1159 576.94 63.3688 577.584 63.6678C578.228 63.9897 578.78 64.4727 579.194 65.0705C579.654 65.8064 579.884 66.6573 579.861 67.5311C579.861 68.8879 579.47 69.9227 578.665 70.6125C577.791 71.3484 576.664 71.7163 575.515 71.6474C574.48 71.6704 573.445 71.4174 572.548 70.9115C571.72 70.3596 571.306 69.8767 571.306 69.3938Z" fill="#FF6C37"/>
<path d="M584.805 57.6887C584.805 57.5047 584.851 57.3208 584.966 57.1828C585.058 57.0218 585.219 56.9528 585.403 56.9528H593.451C593.635 56.9528 593.796 57.0218 593.888 57.1828C594.003 57.3208 594.049 57.5047 594.049 57.6887C594.049 57.8727 594.003 58.0796 593.888 58.2406C593.796 58.4016 593.635 58.4706 593.451 58.4706H590.301V70.8423C590.301 71.0263 590.209 71.1873 590.048 71.2793C589.68 71.4862 589.243 71.4862 588.875 71.2793C588.714 71.1873 588.622 71.0263 588.622 70.8423V58.4706H585.426C585.242 58.4706 585.081 58.4016 584.989 58.2406C584.874 58.0796 584.805 57.8957 584.805 57.6887Z" fill="#FF6C37"/>
<path d="M599.706 70.8426V57.8039C599.637 57.413 599.913 57.0451 600.304 56.9761C600.396 56.9531 600.488 56.9531 600.557 56.9761C601.086 56.9761 601.523 57.321 601.891 58.0339L604.995 63.9898L608.123 58.0339C608.514 57.344 608.951 56.9761 609.457 56.9761C609.847 56.9071 610.215 57.183 610.284 57.574C610.307 57.643 610.307 57.7119 610.284 57.7809V70.8196C610.284 71.0036 610.192 71.1645 610.031 71.2565C609.664 71.4635 609.227 71.4635 608.859 71.2565C608.698 71.1645 608.606 71.0036 608.606 70.8196V60.4485L605.616 66.0594C605.524 66.3354 605.271 66.5424 604.972 66.5424C604.696 66.5194 604.443 66.3354 604.351 66.0594L601.362 60.3335V70.8196C601.362 71.0036 601.27 71.1645 601.109 71.2565C600.948 71.3715 600.741 71.4405 600.557 71.4405C600.35 71.4405 600.143 71.3945 599.982 71.2795C599.798 71.2105 599.683 71.0266 599.706 70.8426Z" fill="#FF6C37"/>
<path d="M615.964 70.7506C615.964 70.7046 615.987 70.6356 616.01 70.5896L620.057 57.5509C620.172 57.16 620.517 56.9761 621.069 56.9761C621.621 56.9761 621.966 57.16 622.081 57.5509L626.151 70.6586V70.7736C626.151 70.9805 626.013 71.1645 625.829 71.2565C625.622 71.3945 625.37 71.4634 625.094 71.4404C624.841 71.4634 624.588 71.3255 624.496 71.0725L623.622 68.175H618.425L617.551 71.0725C617.482 71.3255 617.206 71.4864 616.953 71.4634C616.723 71.4634 616.493 71.3945 616.286 71.2565C616.079 71.1645 615.964 70.9805 615.964 70.7506ZM618.839 66.7953H623.277L621.069 59.3906L618.839 66.7953Z" fill="#FF6C37"/>
<path d="M631.877 70.8423V57.5277C631.877 57.1368 632.153 56.9528 632.705 56.9528C632.958 56.9528 633.211 57.0448 633.418 57.2058C633.648 57.4358 633.855 57.7117 633.97 58.0107L638.914 67.6689V57.5277C638.914 57.3438 639.006 57.1828 639.167 57.1138C639.535 56.9069 639.972 56.9069 640.34 57.1138C640.501 57.2058 640.593 57.3668 640.593 57.5277V70.8423C640.593 71.0263 640.501 71.1873 640.34 71.2793C640.156 71.3942 639.972 71.4402 639.765 71.4402C639.305 71.4172 638.891 71.1183 638.73 70.6814L633.533 60.7242V70.8423C633.533 71.0263 633.441 71.1873 633.303 71.2793C632.935 71.4862 632.498 71.4862 632.13 71.2793C631.969 71.1873 631.877 71.0263 631.877 70.8423Z" fill="#FF6C37"/>
<path d="M534.812 67.1861C536.422 54.5844 527.522 43.0634 514.943 41.4537C502.365 39.844 490.798 48.7434 489.188 61.3222C487.578 73.9009 496.478 85.4448 509.057 87.0775C521.658 88.6872 533.179 79.7878 534.812 67.1861Z" fill="#FF6C37"/>
<path d="M520.302 56.0326L510.598 65.7369L507.861 63.0004C517.404 53.4571 518.347 54.2849 520.302 56.0326Z" fill="white"/>
<path d="M510.598 65.9669C510.529 65.9669 510.483 65.9439 510.437 65.898L507.677 63.1614C507.585 63.0695 507.585 62.9315 507.677 62.8395C517.382 53.1352 518.393 54.0551 520.44 55.8948C520.486 55.9407 520.509 55.9867 520.509 56.0557C520.509 56.1247 520.486 56.1707 520.44 56.2167L510.736 65.898C510.713 65.9439 510.644 65.9669 510.598 65.9669ZM508.183 63.0005L510.598 65.415L519.957 56.0557C518.255 54.538 517.106 54.0781 508.183 63.0005Z" fill="#FF6C37"/>
<path d="M513.38 68.5194L510.735 65.8749L520.44 56.1707C523.038 58.7922 519.152 63.0464 513.38 68.5194Z" fill="white"/>
<path d="M513.38 68.7494C513.311 68.7494 513.265 68.7264 513.219 68.6804L510.575 66.0359C510.529 65.9899 510.529 65.9439 510.529 65.8749C510.529 65.8059 510.552 65.7599 510.598 65.7139L520.302 56.0097C520.394 55.9177 520.532 55.9177 520.624 56.0097C521.222 56.5616 521.544 57.3434 521.521 58.1483C521.475 60.7008 518.577 63.9433 513.564 68.6804C513.495 68.7264 513.426 68.7494 513.38 68.7494ZM511.058 65.8749C512.529 67.3696 513.15 67.9675 513.38 68.1975C517.244 64.5182 520.992 60.7468 521.015 58.1483C521.038 57.5504 520.808 56.9525 520.417 56.4926L511.058 65.8749Z" fill="#FF6C37"/>
<path d="M507.907 63.0694L509.862 65.0241C509.908 65.0701 509.908 65.116 509.862 65.162C509.839 65.185 509.839 65.185 509.816 65.185L505.769 66.0589C505.562 66.0819 505.378 65.9439 505.332 65.7369C505.309 65.622 505.355 65.507 505.424 65.438L507.769 63.0924C507.815 63.0464 507.884 63.0234 507.907 63.0694Z" fill="white"/>
<path d="M505.7 66.2889C505.355 66.2889 505.102 66.0129 505.102 65.668C505.102 65.507 505.171 65.3461 505.286 65.2311L507.631 62.8855C507.769 62.7705 507.953 62.7705 508.091 62.8855L510.046 64.8402C510.184 64.9551 510.184 65.1621 510.046 65.3001C510 65.3461 509.954 65.3691 509.885 65.3921L505.838 66.2659C505.792 66.2659 505.746 66.2889 505.7 66.2889ZM507.838 63.3224L505.585 65.576C505.539 65.622 505.516 65.691 505.562 65.76C505.585 65.829 505.654 65.852 505.723 65.829L509.517 65.0011L507.838 63.3224Z" fill="#FF6C37"/>
<path d="M525.43 50.6519C523.958 49.2262 521.59 49.2721 520.164 50.7669C518.738 52.2616 518.784 54.6072 520.279 56.0329C521.498 57.2057 523.337 57.4127 524.786 56.5388L522.164 53.9173L525.43 50.6519Z" fill="white"/>
<path d="M522.854 57.2973C520.67 57.2973 518.899 55.5266 518.899 53.342C518.899 51.1574 520.67 49.3867 522.854 49.3867C523.866 49.3867 524.855 49.7776 525.591 50.4905C525.637 50.5365 525.66 50.5825 525.66 50.6515C525.66 50.7205 525.637 50.7665 525.591 50.8125L522.486 53.9169L524.924 56.3545C525.016 56.4464 525.016 56.5844 524.924 56.6764C524.901 56.6994 524.901 56.6994 524.878 56.7224C524.28 57.0903 523.567 57.2973 522.854 57.2973ZM522.854 49.8696C520.923 49.8696 519.359 51.4333 519.382 53.365C519.382 55.2967 520.946 56.8604 522.877 56.8374C523.406 56.8374 523.935 56.7224 524.418 56.4694L522.003 54.0779C521.957 54.0319 521.934 53.9859 521.934 53.9169C521.934 53.8479 521.957 53.8019 522.003 53.7559L525.085 50.6745C524.464 50.1456 523.682 49.8696 522.854 49.8696Z" fill="#FF6C37"/>
<path d="M525.499 50.7207L525.453 50.6747L522.164 53.9173L524.763 56.5157C525.016 56.3547 525.269 56.1707 525.476 55.9638C526.948 54.515 526.948 52.1695 525.499 50.7207Z" fill="white"/>
<path d="M524.786 56.7685C524.717 56.7685 524.671 56.7455 524.625 56.6995L522.003 54.0779C521.957 54.0319 521.934 53.9859 521.934 53.9169C521.934 53.8479 521.957 53.8019 522.003 53.7559L525.269 50.4907C525.361 50.3987 525.499 50.3985 525.591 50.4905L525.66 50.5366C527.201 52.0774 527.201 54.5609 525.683 56.1246C525.453 56.3546 525.2 56.5616 524.924 56.7225C524.855 56.7455 524.809 56.7685 524.786 56.7685ZM522.486 53.9169L524.809 56.2396C524.993 56.1246 525.177 55.9637 525.315 55.8257C526.626 54.5149 526.695 52.3763 525.43 50.9966L522.486 53.9169Z" fill="#FF6C37"/>
<path d="M520.693 56.4466C520.141 55.8947 519.244 55.8947 518.692 56.4466L510.023 65.116L511.472 66.5648L520.647 58.5162C521.245 58.0103 521.291 57.1135 520.785 56.5156C520.739 56.4926 520.716 56.4696 520.693 56.4466Z" fill="white"/>
<path d="M511.449 66.7948C511.38 66.7948 511.334 66.7718 511.288 66.7258L509.839 65.2771C509.747 65.1851 509.747 65.0471 509.839 64.9552L518.508 56.2857C519.152 55.6418 520.187 55.6418 520.831 56.2857C521.475 56.9296 521.475 57.9644 520.831 58.6083C520.808 58.6313 520.785 58.6543 520.762 58.6773L511.587 66.7258C511.564 66.7718 511.518 66.7948 511.449 66.7948ZM510.345 65.1161L511.472 66.2429L520.486 58.3324C520.992 57.9184 521.038 57.1596 520.624 56.6537C520.21 56.1477 519.451 56.1018 518.945 56.5157C518.922 56.5387 518.899 56.5617 518.853 56.5847L510.345 65.1161Z" fill="#FF6C37"/>
<path d="M503.377 74.9814C503.285 75.0274 503.239 75.1193 503.262 75.2113L503.653 76.867C503.745 77.097 503.607 77.3729 503.354 77.4419C503.17 77.5109 502.963 77.4419 502.848 77.3039L500.319 74.7974L508.574 66.5419L511.426 66.5879L513.357 68.5195C512.898 68.9105 510.115 71.601 503.377 74.9814Z" fill="white"/>
<path d="M503.193 77.6717C503.009 77.6717 502.825 77.6027 502.71 77.4647L500.204 74.9582C500.158 74.9122 500.135 74.8662 500.135 74.7972C500.135 74.7282 500.158 74.6822 500.204 74.6362L508.459 66.3807C508.505 66.3347 508.574 66.3117 508.62 66.3117L511.472 66.3577C511.54 66.3577 511.586 66.3807 511.632 66.4267L513.564 68.3584C513.61 68.4044 513.633 68.4734 513.633 68.5423C513.633 68.6113 513.61 68.6573 513.541 68.7033L513.38 68.8413C510.943 70.9799 507.631 73.1185 503.515 75.1651L503.906 76.7979C503.975 77.0968 503.837 77.4187 503.561 77.5797C503.423 77.6487 503.308 77.6717 503.193 77.6717ZM500.663 74.7972L503.032 77.1428C503.101 77.2578 503.239 77.3038 503.354 77.2348C503.469 77.1658 503.515 77.0278 503.446 76.9128L503.055 75.2571C503.009 75.0502 503.101 74.8662 503.285 74.7742C507.355 72.7276 510.644 70.612 513.058 68.5193L511.357 66.8177L508.712 66.7717L500.663 74.7972Z" fill="#FF6C37"/>
<path d="M498.364 76.775L500.342 74.7974L503.285 77.7409L498.594 77.4189C498.387 77.3959 498.249 77.212 498.272 77.005C498.272 76.913 498.295 76.821 498.364 76.775Z" fill="white"/>
<path d="M503.285 77.9477L498.571 77.6258C498.226 77.6028 497.996 77.3038 498.019 76.9589C498.042 76.8209 498.088 76.683 498.203 76.591L500.181 74.6133C500.273 74.5213 500.411 74.5213 500.503 74.6133L503.446 77.5568C503.515 77.6258 503.538 77.7178 503.492 77.8098C503.446 77.9017 503.377 77.9477 503.285 77.9477ZM500.342 75.1192L498.525 76.9359C498.456 76.9819 498.456 77.0969 498.525 77.1429C498.548 77.1659 498.571 77.1889 498.617 77.1889L502.687 77.4648L500.342 75.1192Z" fill="#FF6C37"/>
<path d="M507.769 67.5996C507.631 67.5996 507.539 67.4846 507.539 67.3697C507.539 67.3007 507.562 67.2547 507.608 67.2087L509.839 64.9781C509.931 64.8861 510.069 64.8861 510.161 64.9781L511.61 66.4268C511.679 66.4958 511.702 66.5648 511.679 66.6568C511.656 66.7258 511.587 66.7948 511.495 66.8178L507.815 67.5996C507.792 67.5996 507.769 67.5996 507.769 67.5996ZM510 65.461L508.482 66.9787L510.966 66.4498L510 65.461Z" fill="#FF6C37"/>
<path d="M511.426 66.5879L508.896 67.1398C508.712 67.1858 508.528 67.0708 508.482 66.8868C508.459 66.7719 508.482 66.6569 508.574 66.5649L509.977 65.1622L511.426 66.5879Z" fill="white"/>
<path d="M508.85 67.3697C508.528 67.3697 508.275 67.1167 508.275 66.7948C508.275 66.6338 508.344 66.4958 508.436 66.3808L509.839 64.9781C509.931 64.8861 510.069 64.8861 510.161 64.9781L511.61 66.4268C511.679 66.4958 511.702 66.5648 511.679 66.6568C511.656 66.7258 511.587 66.7948 511.495 66.8178L508.965 67.3697C508.919 67.3697 508.873 67.3697 508.85 67.3697ZM510 65.461L508.758 66.7028C508.712 66.7488 508.712 66.7948 508.735 66.8407C508.758 66.8867 508.804 66.9097 508.873 66.9097L510.989 66.4498L510 65.461Z" fill="#FF6C37"/>
<path d="M525.522 52.9284C525.476 52.7904 525.315 52.7214 525.177 52.7674C525.039 52.8134 524.97 52.9744 525.016 53.1124C525.016 53.1354 525.039 53.1584 525.039 53.1814C525.177 53.4573 525.131 53.8022 524.947 54.0552C524.855 54.1702 524.878 54.3311 524.97 54.4231C525.085 54.5151 525.246 54.4921 525.338 54.3771C525.683 53.9402 525.752 53.3883 525.522 52.9284Z" fill="#FF6C37"/>
</g>
<g style="mix-blend-mode:luminosity">
<path d="M763.592 68.951V61.8439C763.592 61.6584 763.468 61.5349 763.281 61.5349H760.918V58.7537H763.281C763.468 58.7537 763.592 58.6301 763.592 58.4447V53.9951H766.951V58.4447C766.951 58.6301 767.075 58.7537 767.262 58.7537H770.558V61.5349H767.262C767.075 61.5349 766.951 61.6584 766.951 61.8439V68.1477C766.951 71.1142 768.008 71.3613 769.376 71.3613C769.874 71.3613 770.62 71.2995 771.056 71.2377V74.1423C770.496 74.2042 769.563 74.3278 768.506 74.3278C767.2 74.266 763.592 74.266 763.592 68.951ZM854.895 70.6815L857.631 69.26C858.253 70.6815 859.435 71.6085 860.803 71.6085C861.861 71.6085 863.042 71.1758 863.042 69.878C863.042 69.0128 862.483 68.5184 861.176 68.0859L859.311 67.4679C856.698 66.6644 855.392 65.1812 855.392 63.0799C855.392 60.4224 857.631 58.4447 860.679 58.4447C863.104 58.4447 865.157 59.7426 866.152 61.782L863.415 63.2652C862.793 61.9674 861.798 61.2259 860.617 61.2259C859.435 61.2259 858.626 61.8439 858.626 62.7709C858.626 63.5742 859.248 64.1924 860.492 64.563L862.358 65.1812C865.095 66.0464 866.401 67.5295 866.401 69.569C866.401 72.7828 863.602 74.4515 860.803 74.4515C858.004 74.3897 855.765 72.9682 854.895 70.6815ZM844.57 67.9004C844.508 67.9622 844.446 68.024 844.446 68.0859V74.0188H841.025V52.0791H844.446V64.0687C844.446 64.1924 844.508 64.3159 844.632 64.3159C844.757 64.3777 844.881 64.3159 844.944 64.254L850.479 58.6919H854.646L848.178 65.1812C848.053 65.3047 848.053 65.4284 848.178 65.5519L855.206 74.0188H851.039L845.628 67.3442C845.565 67.2824 845.503 67.2205 845.441 67.2205C845.379 67.2205 845.317 67.2205 845.254 67.2824L844.57 67.9004ZM839.346 60.7932L837.169 62.8327C835.925 61.9057 834.681 61.473 833.313 61.473C830.452 61.473 828.337 63.5742 828.337 66.4172C828.337 69.26 830.452 71.3613 833.313 71.3613C834.557 71.3613 835.863 70.9287 837.231 70.0017L839.159 72.0412C836.361 74.0807 834.868 74.4515 832.94 74.4515C830.639 74.4515 828.586 73.648 827.093 72.1647C825.663 70.7433 824.854 68.642 824.854 66.4172C824.854 61.782 828.275 58.3829 833.002 58.3829C834.557 58.3829 836.858 58.6301 839.346 60.7932ZM823.3 54.1804C823.3 55.2929 822.367 56.2199 821.247 56.2199C820.128 56.2199 819.195 55.2929 819.195 54.1804C819.195 53.0679 820.128 52.1409 821.247 52.1409C822.367 52.1409 823.3 53.0679 823.3 54.1804ZM822.989 74.0188H819.568V58.7537H822.989V74.0188ZM812.105 67.3442V74.0807H808.684V58.8156H812.042V60.6696C812.042 60.7932 812.105 60.9169 812.229 60.9786C812.353 61.0404 812.478 60.9786 812.54 60.855C813.411 59.4336 815.028 58.5066 816.769 58.5066C817.018 58.5066 817.205 58.5066 817.329 58.5684V62.0292C817.142 61.9674 816.831 61.9674 816.52 61.9674C813.784 61.9057 812.105 64.0069 812.105 67.3442ZM793.757 66.4172C793.757 63.636 795.872 61.473 798.608 61.473C801.345 61.473 803.459 63.636 803.459 66.4172C803.459 69.1982 801.345 71.3613 798.608 71.3613C795.872 71.3613 793.757 69.1982 793.757 66.4172ZM794.068 72.2265C794.13 72.2265 794.13 72.2265 794.192 72.2265C794.254 72.2265 794.379 72.2883 794.441 72.3502C795.623 73.7098 797.364 74.4515 799.355 74.4515C803.584 74.4515 806.818 70.9287 806.818 66.4172C806.818 64.1924 806.072 62.2147 804.641 60.6696C803.273 59.1864 801.345 58.3829 799.292 58.3829C797.364 58.3829 795.561 59.1864 794.379 60.6077C794.317 60.6696 794.192 60.7314 794.068 60.6696C793.943 60.6077 793.881 60.5461 793.881 60.4224V52.1409H790.461V74.0807H793.881V72.5355C793.881 72.3502 793.943 72.2883 794.068 72.2265ZM779.887 71.3613C777.213 71.3613 775.036 69.1982 775.036 66.4172C775.036 63.636 777.151 61.473 779.887 61.473C782.624 61.473 784.739 63.636 784.739 66.4172C784.739 69.1982 782.562 71.3613 779.887 71.3613ZM787.911 74.0188V58.7537H784.552V60.2987C784.552 60.4224 784.49 60.546 784.366 60.546C784.241 60.6077 784.117 60.546 784.054 60.4842C782.935 59.1246 781.194 58.3829 779.141 58.3829C774.912 58.3829 771.678 61.9057 771.678 66.4172C771.678 70.9287 774.974 74.4515 779.141 74.4515C781.069 74.4515 782.873 73.648 784.054 72.2265C784.117 72.103 784.241 72.103 784.366 72.1647C784.49 72.2265 784.552 72.2883 784.552 72.412V74.0807H787.911V74.0188ZM751.091 71.3613C748.417 71.3613 746.24 69.1982 746.24 66.4172C746.24 63.636 748.355 61.473 751.091 61.473C753.765 61.473 755.942 63.636 755.942 66.4172C755.942 69.1982 753.765 71.3613 751.091 71.3613ZM759.114 74.0188V58.7537H755.756V60.2987C755.756 60.4224 755.694 60.546 755.569 60.546C755.445 60.6077 755.32 60.546 755.258 60.4842C754.139 59.1246 752.397 58.3829 750.345 58.3829C746.115 58.3829 742.881 61.9057 742.881 66.4172C742.881 70.9287 746.178 74.4515 750.345 74.4515C752.273 74.4515 754.077 73.648 755.258 72.2265C755.32 72.103 755.445 72.103 755.569 72.1647C755.694 72.2265 755.756 72.2883 755.756 72.412V74.0807H759.114V74.0188ZM732.93 71.3613C730.194 71.3613 728.079 69.1982 728.079 66.4172C728.079 63.636 730.194 61.473 732.93 61.473C735.605 61.473 737.781 63.636 737.781 66.4172C737.781 69.1982 735.605 71.3613 732.93 71.3613ZM740.953 74.0188V52.1409H737.533V60.3606C737.533 60.4842 737.47 60.6077 737.346 60.6077C737.222 60.6696 737.097 60.6077 737.035 60.546C735.853 59.1864 734.112 58.4447 732.122 58.4447C727.892 58.4447 724.658 61.9674 724.658 66.479C724.658 68.7039 725.405 70.6815 726.835 72.2265C728.203 73.7098 730.131 74.5132 732.184 74.5132C734.112 74.5132 735.916 73.7098 737.097 72.2883C737.159 72.2265 737.284 72.1647 737.408 72.2265C737.533 72.2883 737.595 72.3502 737.595 72.4738V74.0807H740.953V74.0188Z" fill="#707070"/>
<path d="M715.999 60.7622L703.228 68.0056L689.643 60.288L689 60.6328V66.2379L703.228 74.3436L715.999 67.1002V70.0751L703.228 77.3186L689.643 69.6008L689 69.9458V70.8944L703.228 79L717.499 70.8944V65.2893L716.856 64.9443L703.228 72.6621L690.5 65.4186V62.4868L703.228 69.6871L717.499 61.5814V56.0626L716.771 55.6746L703.228 63.3491L691.186 56.4937L703.228 49.6815L713.171 55.2865L714.071 54.8122V54.1224L703.228 48L689 56.0626V56.9249L703.228 65.0306L715.999 57.7872V60.7622Z" fill="#FF3621"/>
</g>
<g style="mix-blend-mode:luminosity" clip-path="url(#clip1_21428_8643)">
<path d="M982.547 54.05C982.547 55.4915 981.386 56.6527 979.944 56.6527C978.503 56.6527 977.342 55.4915 977.342 54.05C977.342 52.6086 978.463 51.4474 979.944 51.4474C981.426 51.4875 982.547 52.6486 982.547 54.05ZM971.816 59.2953C971.816 59.5355 971.816 59.9359 971.816 59.9359C971.816 59.9359 970.575 58.3343 967.932 58.3343C963.568 58.3343 960.165 61.6577 960.165 66.2623C960.165 70.8268 963.528 74.1902 967.932 74.1902C970.615 74.1902 971.816 72.5485 971.816 72.5485V73.2292C971.816 73.5495 972.056 73.7898 972.377 73.7898H975.62V58.7347C975.62 58.7347 972.657 58.7347 972.377 58.7347C972.056 58.7347 971.816 59.015 971.816 59.2953ZM971.816 68.9449C971.216 69.8258 970.014 70.5866 968.573 70.5866C966.01 70.5866 964.048 68.985 964.048 66.2623C964.048 63.5395 966.01 61.9379 968.573 61.9379C969.974 61.9379 971.256 62.7387 971.816 63.5796V68.9449ZM978.022 58.7347H981.866V73.7898H978.022V58.7347ZM1035.44 58.3343C1032.8 58.3343 1031.56 59.9359 1031.56 59.9359V51.4875H1027.71V73.7898C1027.71 73.7898 1030.68 73.7898 1030.96 73.7898C1031.28 73.7898 1031.52 73.5095 1031.52 73.2292V72.5485C1031.52 72.5485 1032.76 74.1902 1035.4 74.1902C1039.76 74.1902 1043.17 70.8268 1043.17 66.2623C1043.17 61.6977 1039.76 58.3343 1035.44 58.3343ZM1034.8 70.5465C1033.32 70.5465 1032.16 69.7858 1031.56 68.9049V63.5395C1032.16 62.7387 1033.44 61.8979 1034.8 61.8979C1037.36 61.8979 1039.32 63.4995 1039.32 66.2222C1039.32 68.9449 1037.36 70.5465 1034.8 70.5465ZM1025.71 64.8609V73.8298H1021.87V65.3013C1021.87 62.8188 1021.07 61.8178 1018.9 61.8178C1017.74 61.8178 1016.54 62.4184 1015.78 63.2993V73.7898H1011.94V58.7347H1014.98C1015.3 58.7347 1015.54 59.015 1015.54 59.2953V59.9359C1016.66 58.7748 1018.14 58.3343 1019.62 58.3343C1021.31 58.3343 1022.71 58.8148 1023.83 59.7758C1025.19 60.8969 1025.71 62.3383 1025.71 64.8609ZM1002.61 58.3343C999.964 58.3343 998.723 59.9359 998.723 59.9359V51.4875H994.879V73.7898C994.879 73.7898 997.842 73.7898 998.123 73.7898C998.443 73.7898 998.683 73.5095 998.683 73.2292V72.5485C998.683 72.5485 999.924 74.1902 1002.57 74.1902C1006.93 74.1902 1010.33 70.8268 1010.33 66.2623C1010.37 61.6977 1006.97 58.3343 1002.61 58.3343ZM1001.97 70.5465C1000.48 70.5465 999.324 69.7858 998.723 68.9049V63.5395C999.324 62.7387 1000.61 61.8979 1001.97 61.8979C1004.53 61.8979 1006.49 63.4995 1006.49 66.2222C1006.49 68.9449 1004.53 70.5465 1001.97 70.5465ZM991.556 58.3343C992.717 58.3343 993.318 58.5345 993.318 58.5345V62.0981C993.318 62.0981 990.115 61.017 988.113 63.2993V73.8298H984.269V58.7347C984.269 58.7347 987.232 58.7347 987.512 58.7347C987.832 58.7347 988.072 59.015 988.072 59.2953V59.9359C988.793 59.0951 990.355 58.3343 991.556 58.3343ZM951.636 72.4284C951.436 71.9479 951.236 71.4274 951.035 70.987C950.715 70.2663 950.395 69.5856 950.115 68.9449L950.074 68.9049C947.312 62.8989 944.349 56.8128 941.226 50.8068L941.106 50.5666C940.785 49.966 940.465 49.3253 940.145 48.6847C939.744 47.964 939.344 47.2032 938.703 46.4825C937.422 44.8809 935.58 44 933.618 44C931.616 44 929.814 44.8809 928.493 46.4024C927.892 47.1231 927.452 47.8839 927.051 48.6046C926.731 49.2452 926.411 49.8859 926.091 50.4865L925.97 50.7267C922.887 56.7327 919.884 62.8188 917.122 68.8248L917.082 68.9049C916.801 69.5455 916.481 70.2262 916.161 70.9469C915.96 71.3874 915.76 71.8679 915.56 72.3884C915.039 73.8699 914.879 75.2713 915.08 76.7127C915.52 79.7157 917.522 82.2382 920.285 83.3594C921.326 83.7998 922.407 84 923.528 84C923.848 84 924.249 83.96 924.569 83.9199C925.89 83.7598 927.252 83.3193 928.573 82.5586C930.215 81.6376 931.776 80.3163 933.538 78.3944C935.3 80.3163 936.901 81.6376 938.503 82.5586C939.824 83.3193 941.186 83.7598 942.507 83.9199C942.827 83.96 943.228 84 943.548 84C944.669 84 945.79 83.7998 946.791 83.3594C949.594 82.2382 951.556 79.6757 951.996 76.7127C952.317 75.3113 952.157 73.9099 951.636 72.4284ZM933.578 74.5105C931.416 71.7878 930.014 69.2252 929.534 67.0631C929.334 66.1421 929.294 65.3413 929.414 64.6206C929.494 63.98 929.734 63.4194 930.054 62.9389C930.815 61.8579 932.097 61.1772 933.578 61.1772C935.059 61.1772 936.381 61.8178 937.102 62.9389C937.422 63.4194 937.662 63.98 937.742 64.6206C937.862 65.3413 937.822 66.1822 937.622 67.0631C937.142 69.1852 935.74 71.7477 933.578 74.5105ZM949.554 76.3924C949.274 78.4745 947.872 80.2763 945.91 81.0771C944.949 81.4775 943.908 81.5976 942.867 81.4775C941.866 81.3574 940.865 81.037 939.824 80.4364C938.383 79.6356 936.941 78.3944 935.26 76.5526C937.902 73.3093 939.504 70.3463 940.105 67.7037C940.385 66.4625 940.425 65.3413 940.305 64.3003C940.145 63.2993 939.784 62.3784 939.224 61.5776C937.982 59.7758 935.9 58.7347 933.578 58.7347C931.256 58.7347 929.174 59.8158 927.932 61.5776C927.372 62.3784 927.011 63.2993 926.851 64.3003C926.691 65.3413 926.731 66.5025 927.051 67.7037C927.652 70.3463 929.294 73.3493 931.896 76.5926C930.255 78.4344 928.773 79.6757 927.332 80.4765C926.291 81.0771 925.29 81.3974 924.289 81.5175C923.208 81.6376 922.167 81.4775 921.246 81.1171C919.284 80.3163 917.882 78.5145 917.602 76.4324C917.482 75.4314 917.562 74.4304 917.962 73.3093C918.083 72.9089 918.283 72.5085 918.483 72.028C918.763 71.3874 919.084 70.7067 919.404 70.026L919.444 69.9459C922.207 63.98 925.17 57.8939 928.253 51.968L928.373 51.7277C928.693 51.1271 929.013 50.4865 929.334 49.8859C929.654 49.2452 930.014 48.6446 930.455 48.1241C931.296 47.1632 932.417 46.6426 933.658 46.6426C934.899 46.6426 936.02 47.1632 936.861 48.1241C937.302 48.6446 937.662 49.2452 937.982 49.8859C938.303 50.4865 938.623 51.1271 938.943 51.7277L939.063 51.968C942.107 57.9339 945.069 64.02 947.832 69.986V70.026C948.153 70.6667 948.433 71.3874 948.753 72.028C948.953 72.5085 949.154 72.9089 949.274 73.3093C949.594 74.3503 949.714 75.3514 949.554 76.3924Z" fill="#FF5A5F"/>
</g>
<g style="mix-blend-mode:luminosity">
<path d="M1136.05 54.0126H1143.67C1148.53 54.0126 1152.55 56.8242 1152.55 63.2437V64.5926C1152.55 71.0609 1148.79 73.9699 1143.82 73.9699H1136.05V54.0126ZM1140.31 57.6368V70.3295H1143.58C1146.34 70.3295 1148.19 68.5256 1148.19 64.5113V63.455C1148.19 59.4407 1146.24 57.6368 1143.43 57.6368H1140.31ZM1154.81 57.8318H1158.22L1158.77 61.586C1159.42 59.0344 1161.08 57.6693 1164.09 57.6693H1165.14V61.976H1163.39C1159.92 61.976 1159.08 63.1787 1159.08 66.5916V74.0187H1154.87V57.8318H1154.81ZM1165.99 66.2503V65.7952C1165.99 60.3834 1169.45 57.4255 1174.16 57.4255C1178.97 57.4255 1182.34 60.3834 1182.34 65.7952V66.2503C1182.34 71.5647 1179.07 74.425 1174.16 74.425C1168.94 74.3762 1165.99 71.5809 1165.99 66.2503ZM1178.03 66.2015V65.7952C1178.03 62.7886 1176.52 60.9847 1174.11 60.9847C1171.76 60.9847 1170.2 62.6424 1170.2 65.7952V66.2015C1170.2 69.1106 1171.71 70.7683 1174.11 70.7683C1176.52 70.7196 1178.03 69.1106 1178.03 66.2015ZM1184.55 57.8318H1188.06L1188.46 60.8872C1189.31 58.8394 1191.11 57.4255 1193.78 57.4255C1197.89 57.4255 1200.6 60.3834 1200.6 65.8602V66.3153C1200.6 71.6297 1197.6 74.4412 1193.78 74.4412C1191.23 74.4412 1189.47 73.2874 1188.61 71.4346V79.6094H1184.5L1184.55 57.8318ZM1196.33 66.2015V65.844C1196.33 62.6261 1194.67 61.0334 1192.46 61.0334C1190.1 61.0334 1188.54 62.8374 1188.54 65.844V66.1528C1188.54 69.0131 1190.06 70.8171 1192.41 70.8171C1194.83 70.7683 1196.33 69.2244 1196.33 66.2015ZM1206.83 71.0283L1206.47 73.9862H1202.86V52.4199H1206.97V60.6921C1207.88 58.5794 1209.69 57.4255 1212.24 57.4255C1216.11 57.4743 1218.97 60.1396 1218.97 65.5027V66.0065C1218.97 71.3696 1216.25 74.4412 1212.14 74.4412C1209.43 74.3762 1207.67 73.1248 1206.83 71.0283ZM1214.64 66.0065V65.6002C1214.64 62.6424 1213.04 60.9847 1210.78 60.9847C1208.47 60.9847 1206.86 62.8374 1206.86 65.649V66.0065C1206.86 69.0131 1208.42 70.7683 1210.73 70.7683C1213.2 70.7683 1214.64 69.2244 1214.64 66.0065ZM1220.77 66.2503V65.7952C1220.77 60.3834 1224.23 57.4255 1228.95 57.4255C1233.76 57.4255 1237.12 60.3834 1237.12 65.7952V66.2503C1237.12 71.5647 1233.81 74.425 1228.95 74.425C1223.73 74.3762 1220.77 71.5809 1220.77 66.2503ZM1232.85 66.2015V65.7952C1232.85 62.7886 1231.34 60.9847 1228.93 60.9847C1226.57 60.9847 1225.01 62.6424 1225.01 65.7952V66.2015C1225.01 69.1106 1226.53 70.7683 1228.93 70.7683C1231.35 70.7196 1232.85 69.1106 1232.85 66.2015ZM1242.63 65.6002L1236.96 57.8318H1241.82L1245.08 62.6911L1248.4 57.8318H1253.21L1247.46 65.5515L1253.52 73.9862H1248.76L1245.05 68.6231L1241.44 73.9862H1236.47L1242.63 65.6002Z" fill="#707070"/>
<path d="M1109.85 54.0132L1100.43 60.0264L1109.85 66.0396L1100.43 72.0528L1091 66.0071L1100.43 59.9939L1091 54.0132L1100.43 48L1109.85 54.0132ZM1100.38 73.9868L1109.8 67.9736L1119.23 73.9868L1109.8 80L1100.38 73.9868ZM1109.85 66.0071L1119.28 59.9939L1109.85 54.0132L1119.23 48L1128.66 54.0132L1119.23 60.0264L1128.66 66.0396L1119.23 72.0528L1109.85 66.0071Z" fill="#0061FF"/>
</g>
<g style="mix-blend-mode:luminosity">
<path d="M1355.21 52.7715H1347.34C1346.8 52.7715 1346.34 53.163 1346.26 53.695L1343.07 73.8891C1343.01 74.2875 1343.32 74.6468 1343.72 74.6468H1347.48C1348.02 74.6468 1348.48 74.2553 1348.56 73.7222L1349.42 68.2755C1349.5 67.7423 1349.96 67.3508 1350.5 67.3508H1352.99C1358.18 67.3508 1361.17 64.8405 1361.96 59.866C1362.31 57.6896 1361.97 55.9796 1360.95 54.782C1359.83 53.467 1357.85 52.7715 1355.21 52.7715ZM1356.12 60.1469C1355.69 62.9728 1353.53 62.9728 1351.44 62.9728H1350.26L1351.09 57.6954C1351.14 57.3764 1351.41 57.1415 1351.74 57.1415H1352.28C1353.7 57.1415 1355.05 57.1415 1355.74 57.9522C1356.15 58.4358 1356.28 59.1543 1356.12 60.1469Z" fill="#253B80"/>
<path d="M1378.75 60.056H1374.98C1374.66 60.056 1374.38 60.2909 1374.33 60.6098L1374.17 61.6646L1373.9 61.2823C1373.09 60.0974 1371.27 59.7013 1369.45 59.7013C1365.28 59.7013 1361.72 62.8576 1361.03 67.2852C1360.67 69.4938 1361.18 71.6057 1362.43 73.0784C1363.58 74.4326 1365.23 74.9969 1367.18 74.9969C1370.54 74.9969 1372.4 72.8378 1372.4 72.8378L1372.24 73.8857C1372.17 74.2864 1372.48 74.6457 1372.88 74.6457H1376.28C1376.82 74.6457 1377.28 74.2541 1377.36 73.721L1379.4 60.8137C1379.46 60.4164 1379.16 60.056 1378.75 60.056ZM1373.5 67.3957C1373.13 69.5502 1371.42 70.9965 1369.24 70.9965C1368.15 70.9965 1367.27 70.6453 1366.71 69.9797C1366.15 69.3187 1365.94 68.378 1366.12 67.3301C1366.46 65.194 1368.2 63.7005 1370.34 63.7005C1371.41 63.7005 1372.28 64.0563 1372.86 64.7277C1373.43 65.4059 1373.66 66.3524 1373.5 67.3957Z" fill="#253B80"/>
<path d="M1398.84 60.0559H1395.05C1394.69 60.0559 1394.35 60.2355 1394.14 60.5361L1388.92 68.2351L1386.7 60.8366C1386.56 60.3737 1386.13 60.0559 1385.65 60.0559H1381.93C1381.47 60.0559 1381.16 60.4981 1381.3 60.9242L1385.48 73.174L1381.55 78.7139C1381.24 79.1503 1381.55 79.7503 1382.09 79.7503H1385.87C1386.23 79.7503 1386.57 79.5752 1386.77 79.2805L1399.38 61.0865C1399.68 60.6512 1399.37 60.0559 1398.84 60.0559Z" fill="#253B80"/>
<path d="M1411.38 52.7717H1403.51C1402.97 52.7717 1402.51 53.1632 1402.43 53.6952L1399.24 73.8894C1399.18 74.2878 1399.49 74.6471 1399.89 74.6471H1403.93C1404.31 74.6471 1404.63 74.373 1404.69 73.9999L1405.59 68.2757C1405.67 67.7426 1406.13 67.3511 1406.67 67.3511H1409.16C1414.35 67.3511 1417.34 64.8408 1418.13 59.8662C1418.48 57.6898 1418.14 55.9798 1417.12 54.7823C1416 53.4672 1414.02 52.7717 1411.38 52.7717ZM1412.29 60.1472C1411.86 62.973 1409.7 62.973 1407.62 62.973H1406.43L1407.26 57.6956C1407.31 57.3766 1407.59 57.1417 1407.91 57.1417H1408.45C1409.88 57.1417 1411.22 57.1417 1411.91 57.9524C1412.33 58.436 1412.45 59.1546 1412.29 60.1472Z" fill="#179BD7"/>
<path d="M1434.92 60.0562H1431.15C1430.83 60.0562 1430.56 60.2911 1430.51 60.6101L1430.34 61.6649L1430.08 61.2826C1429.26 60.0977 1427.44 59.7015 1425.62 59.7015C1421.46 59.7015 1417.9 62.8578 1417.2 67.2854C1416.84 69.494 1417.35 71.6059 1418.61 73.0787C1419.76 74.4329 1421.4 74.9971 1423.36 74.9971C1426.72 74.9971 1428.58 72.838 1428.58 72.838L1428.41 73.8859C1428.35 74.2866 1428.65 74.6459 1429.06 74.6459H1432.45C1432.99 74.6459 1433.45 74.2544 1433.53 73.7212L1435.57 60.8139C1435.64 60.4166 1435.33 60.0562 1434.92 60.0562ZM1429.67 67.396C1429.31 69.5504 1427.59 70.9967 1425.41 70.9967C1424.32 70.9967 1423.44 70.6455 1422.88 69.98C1422.32 69.319 1422.11 68.3782 1422.29 67.3303C1422.63 65.1943 1424.37 63.7007 1426.51 63.7007C1427.58 63.7007 1428.46 64.0566 1429.03 64.7279C1429.61 65.4061 1429.83 66.3527 1429.67 67.396Z" fill="#179BD7"/>
<path d="M1439.37 53.3255L1436.14 73.8893C1436.07 74.2877 1436.38 74.647 1436.78 74.647H1440.03C1440.57 74.647 1441.03 74.2555 1441.12 73.7223L1444.3 53.5294C1444.37 53.1309 1444.06 52.7705 1443.66 52.7705H1440.02C1439.7 52.7717 1439.42 53.0066 1439.37 53.3255Z" fill="#179BD7"/>
<path d="M1310.37 78.5713L1310.97 74.746L1309.63 74.7149H1303.22L1307.67 46.4878C1307.69 46.4026 1307.73 46.3231 1307.8 46.2667C1307.86 46.2103 1307.95 46.1792 1308.04 46.1792H1318.84C1322.42 46.1792 1324.9 46.9254 1326.19 48.3982C1326.8 49.0891 1327.18 49.8111 1327.37 50.6056C1327.56 51.4393 1327.57 52.4354 1327.38 53.6502L1327.36 53.7389V54.5173L1327.97 54.8605C1328.48 55.1311 1328.88 55.4408 1329.19 55.7955C1329.71 56.3862 1330.05 57.137 1330.19 58.0271C1330.34 58.9426 1330.29 60.0319 1330.05 61.2652C1329.77 62.6839 1329.32 63.9194 1328.72 64.9305C1328.17 65.862 1327.46 66.6347 1326.62 67.2335C1325.82 67.8024 1324.87 68.2342 1323.79 68.5105C1322.75 68.7823 1321.56 68.9193 1320.25 68.9193H1319.41C1318.81 68.9193 1318.23 69.1358 1317.77 69.5239C1317.31 69.92 1317 70.4612 1316.91 71.0531L1316.85 71.3974L1315.78 78.1395L1315.74 78.3871C1315.72 78.4654 1315.7 78.5045 1315.67 78.531C1315.64 78.5552 1315.6 78.5713 1315.56 78.5713H1310.37Z" fill="#253B80"/>
<path d="M1328.54 53.8286C1328.51 54.0347 1328.47 54.2455 1328.43 54.4619C1327 61.7752 1322.13 64.3016 1315.91 64.3016H1312.74C1311.98 64.3016 1311.34 64.8544 1311.22 65.6052L1309.59 75.8951L1309.13 78.8119C1309.06 79.3047 1309.44 79.7492 1309.94 79.7492H1315.56C1316.22 79.7492 1316.79 79.2656 1316.89 78.6092L1316.95 78.3236L1318.01 71.608L1318.07 71.2395C1318.18 70.5809 1318.74 70.0972 1319.41 70.0972H1320.25C1325.69 70.0972 1329.96 67.8863 1331.2 61.4885C1331.72 58.8158 1331.45 56.5842 1330.08 55.0147C1329.66 54.5414 1329.14 54.1487 1328.54 53.8286Z" fill="#179BD7"/>
<path d="M1327.05 53.2344C1326.83 53.1711 1326.61 53.1135 1326.38 53.0617C1326.15 53.011 1325.91 52.9661 1325.67 52.927C1324.81 52.7888 1323.88 52.7231 1322.87 52.7231H1314.41C1314.2 52.7231 1314 52.7704 1313.82 52.8556C1313.43 53.0433 1313.14 53.4129 1313.07 53.8654L1311.27 65.2724L1311.22 65.6051C1311.34 64.8544 1311.98 64.3016 1312.74 64.3016H1315.91C1322.13 64.3016 1327.01 61.7741 1328.43 54.4619C1328.47 54.2454 1328.51 54.0347 1328.54 53.8286C1328.18 53.6374 1327.79 53.4739 1327.37 53.3346C1327.27 53.3001 1327.16 53.2667 1327.05 53.2344Z" fill="#222D65"/>
<path d="M1313.07 53.8655C1313.14 53.413 1313.43 53.0433 1313.82 52.8568C1314 52.7716 1314.2 52.7244 1314.41 52.7244H1322.87C1323.87 52.7244 1324.81 52.79 1325.66 52.9282C1325.91 52.9673 1326.15 53.0122 1326.38 53.0629C1326.61 53.1147 1326.83 53.1723 1327.05 53.2356C1327.16 53.2679 1327.27 53.3013 1327.37 53.3347C1327.79 53.474 1328.18 53.6387 1328.54 53.8287C1328.97 51.1261 1328.54 49.2859 1327.08 47.6197C1325.47 45.7853 1322.56 45 1318.84 45H1308.04C1307.28 45 1306.63 45.5527 1306.51 46.3047L1302.01 74.8219C1301.92 75.3862 1302.36 75.8952 1302.93 75.8952H1309.6L1311.27 65.2724L1313.07 53.8655Z" fill="#253B80"/>
</g>
<g style="mix-blend-mode:luminosity" clip-path="url(#clip2_21428_8643)">
<path d="M1508.26 78.0663C1506.59 78.3595 1504.89 78.4474 1503.14 78.6816L1497.78 62.9786V79.3555C1496.11 79.5313 1494.58 79.7656 1493 80V50H1497.45L1503.55 67.0217V50H1508.26V78.0663ZM1517.49 60.9863C1519.31 60.9863 1522.09 60.8984 1523.76 60.8984V65.5858C1521.68 65.5858 1519.25 65.5858 1517.49 65.6737V72.6465C1520.25 72.4708 1523 72.2362 1525.78 72.1483V76.6597L1512.8 77.6854V50H1525.78V54.6875H1517.49V60.9863ZM1543.21 54.6876H1538.35V76.2501C1536.77 76.2501 1535.19 76.2501 1533.66 76.3085V54.6876H1528.8V50H1543.22L1543.21 54.6876ZM1550.83 60.6642H1557.25V65.3516H1550.83V75.9864H1546.23V50H1559.33V54.6875H1550.83V60.6642ZM1566.95 71.8848C1569.61 71.9432 1572.31 72.1486 1574.91 72.2948V76.9238C1570.72 76.66 1566.54 76.3966 1562.26 76.3085V50H1566.95V71.8848ZM1578.87 77.2461C1580.36 77.3341 1581.95 77.422 1583.47 77.5975V50H1578.87V77.2461ZM1604.01 50L1598.06 64.2676L1604.01 80C1602.25 79.7656 1600.49 79.4433 1598.73 79.1503L1595.36 70.4786L1591.94 78.4474C1590.24 78.1542 1588.6 78.0663 1586.9 77.8319L1592.93 64.0917L1587.48 50H1592.52L1595.6 57.8809L1598.88 50H1604.01V50Z" fill="#D81F26"/>
</g>
<defs>
<clipPath id="clip0_21428_8643">
<rect width="114" height="48" fill="white" transform="translate(181 40)"/>
</clipPath>
<clipPath id="clip1_21428_8643">
<rect width="128" height="48" fill="white" transform="translate(915 40)"/>
</clipPath>
<clipPath id="clip2_21428_8643">
<rect width="111" height="48" fill="white" transform="translate(1493 40)"/>
</clipPath>
</defs>
</svg>
